<svg xmlns="http://www.w3.org/2000/svg" xmlns:xlink="http://www.w3.org/1999/xlink" preserveAspectRatio="xMidYMid" width="21" height="22" viewBox="0 0 21 22">
  <defs>
    <style>
      .cls-1 {
        fill: #fff;
        fill-rule: evenodd;
      }
    </style>
  </defs>
  <path d="M12.486,9.351 L12.486,10.818 L16.027,10.818 L16.027,14.485 L17.444,14.485 L17.444,10.818 L20.985,10.818 L20.985,9.351 L17.444,9.351 L17.444,5.685 L16.027,5.685 L16.027,9.351 L12.486,9.351 ZM13.442,0.006 L7.887,0.006 C6.431,0.006 4.598,0.237 3.061,1.593 C1.900,2.662 1.335,4.133 1.335,5.462 C1.335,7.713 2.953,9.995 5.811,9.995 C6.081,9.995 6.376,9.966 6.675,9.938 C6.540,10.283 6.404,10.572 6.404,11.063 C6.404,11.959 6.836,12.506 7.213,13.026 C6.001,13.112 3.735,13.257 2.062,14.353 C0.471,15.365 -0.015,16.837 -0.015,17.876 C-0.015,20.013 1.873,22.006 5.784,22.006 C10.422,22.006 12.877,19.264 12.877,16.548 C12.877,14.558 11.798,13.575 10.611,12.506 L9.640,11.699 C9.345,11.438 8.940,11.093 8.940,10.457 C8.940,9.822 9.345,9.417 9.695,9.042 C10.827,8.089 11.960,7.079 11.960,4.942 C11.960,2.748 10.664,1.593 10.045,1.044 L11.718,1.044 L13.442,0.006 ZM11.071,17.675 C11.071,19.465 9.695,20.792 7.106,20.792 C4.221,20.792 2.359,19.320 2.359,17.271 C2.359,15.219 4.086,14.528 4.678,14.297 C5.811,13.892 7.267,13.835 7.510,13.835 C7.780,13.835 7.915,13.835 8.131,13.863 C10.181,15.422 11.071,16.203 11.071,17.675 ZM8.913,8.378 C8.481,8.839 7.752,9.186 7.078,9.186 C4.760,9.186 3.708,5.981 3.708,4.047 C3.708,3.296 3.843,2.517 4.301,1.911 C4.732,1.333 5.487,0.957 6.189,0.957 C8.426,0.957 9.587,4.191 9.587,6.270 C9.587,6.790 9.533,7.713 8.913,8.378 Z" class="cls-1"/>
</svg>
