<svg xmlns="http://www.w3.org/2000/svg" xmlns:xlink="http://www.w3.org/1999/xlink" preserveAspectRatio="xMidYMid" width="50" height="19" viewBox="0 0 50 19">
  <defs>
    <style>
      .cls-1 {
        fill: rgba(255,255,255,0.5);
        fill-rule: evenodd;
      }
    </style>
  </defs>
  <path  d="M250.000,2.000 L250.000,19.000 L254.000,19.000 L254.000,2.000 L261.000,2.000 L261.000,14.000 L263.000,14.000 L263.000,2.000 L271.000,2.000 L271.000,14.000 L273.000,14.000 L273.000,2.000 L281.000,2.000 L281.000,14.000 L283.000,14.000 L283.000,2.000 L291.000,2.000 L291.000,14.000 L293.000,14.000 L293.000,2.000 L300.000,2.000 L300.000,19.000 L304.000,19.000 L304.000,2.000 L311.000,2.000 L311.000,14.000 L313.000,14.000 L313.000,2.000 L321.000,2.000 L321.000,14.000 L323.000,14.000 L323.000,2.000 L331.000,2.000 L331.000,14.000 L333.000,14.000 L333.000,2.000 L341.000,2.000 L341.000,14.000 L343.000,14.000 L343.000,2.000 L350.000,2.000 L350.000,19.000 L354.000,19.000 L354.000,2.000 L361.000,2.000 L361.000,14.000 L363.000,14.000 L363.000,2.000 L371.000,2.000 L371.000,14.000 L373.000,14.000 L373.000,2.000 L381.000,2.000 L381.000,14.000 L383.000,14.000 L383.000,2.000 L391.000,2.000 L391.000,14.000 L393.000,14.000 L393.000,2.000 L400.000,2.000 L400.000,19.000 L404.000,19.000 L404.000,2.000 L411.000,2.000 L411.000,14.000 L413.000,14.000 L413.000,2.000 L421.000,2.000 L421.000,14.000 L423.000,14.000 L423.000,2.000 L431.000,2.000 L431.000,14.000 L433.000,14.000 L433.000,2.000 L441.000,2.000 L441.000,14.000 L443.000,14.000 L443.000,2.000 L450.000,2.000 L450.000,19.000 L454.000,19.000 L454.000,2.000 L461.000,2.000 L461.000,14.000 L463.000,14.000 L463.000,2.000 L471.000,2.000 L471.000,14.000 L473.000,14.000 L473.000,2.000 L481.000,2.000 L481.000,14.000 L483.000,14.000 L483.000,2.000 L491.000,2.000 L491.000,14.000 L493.000,14.000 L493.000,2.000 L500.000,2.000 L500.000,19.000 L504.000,19.000 L504.000,2.000 L511.000,2.000 L511.000,14.000 L513.000,14.000 L513.000,2.000 L521.000,2.000 L521.000,14.000 L523.000,14.000 L523.000,2.000 L531.000,2.000 L531.000,14.000 L533.000,14.000 L533.000,2.000 L541.000,2.000 L541.000,14.000 L543.000,14.000 L543.000,2.000 L550.000,2.000 L550.000,19.000 L554.000,19.000 L554.000,2.000 L561.000,2.000 L561.000,14.000 L563.000,14.000 L563.000,2.000 L571.000,2.000 L571.000,14.000 L573.000,14.000 L573.000,2.000 L581.000,2.000 L581.000,14.000 L583.000,14.000 L583.000,2.000 L591.000,2.000 L591.000,14.000 L593.000,14.000 L593.000,2.000 L600.000,2.000 L600.000,19.000 L604.000,19.000 L604.000,2.000 L611.000,2.000 L611.000,14.000 L613.000,14.000 L613.000,2.000 L621.000,2.000 L621.000,14.000 L623.000,14.000 L623.000,2.000 L631.000,2.000 L631.000,14.000 L633.000,14.000 L633.000,2.000 L641.000,2.000 L641.000,14.000 L643.000,14.000 L643.000,2.000 L650.000,2.000 L650.000,19.000 L654.000,19.000 L654.000,2.000 L661.000,2.000 L661.000,14.000 L663.000,14.000 L663.000,2.000 L671.000,2.000 L671.000,14.000 L673.000,14.000 L673.000,2.000 L681.000,2.000 L681.000,14.000 L683.000,14.000 L683.000,2.000 L691.000,2.000 L691.000,14.000 L693.000,14.000 L693.000,2.000 L700.000,2.000 L700.000,19.000 L704.000,19.000 L704.000,2.000 L711.000,2.000 L711.000,14.000 L713.000,14.000 L713.000,2.000 L721.000,2.000 L721.000,14.000 L723.000,14.000 L723.000,2.000 L731.000,2.000 L731.000,14.000 L733.000,14.000 L733.000,2.000 L741.000,2.000 L741.000,14.000 L743.000,14.000 L743.000,2.000 L750.000,2.000 L750.000,19.000 L754.000,19.000 L754.000,2.000 L761.000,2.000 L761.000,14.000 L763.000,14.000 L763.000,2.000 L771.000,2.000 L771.000,14.000 L773.000,14.000 L773.000,2.000 L781.000,2.000 L781.000,14.000 L783.000,14.000 L783.000,2.000 L791.000,2.000 L791.000,14.000 L793.000,14.000 L793.000,2.000 L800.000,2.000 L800.000,19.000 L804.000,19.000 L804.000,2.000 L811.000,2.000 L811.000,14.000 L813.000,14.000 L813.000,2.000 L821.000,2.000 L821.000,14.000 L823.000,14.000 L823.000,2.000 L831.000,2.000 L831.000,14.000 L833.000,14.000 L833.000,2.000 L841.000,2.000 L841.000,14.000 L843.000,14.000 L843.000,2.000 L850.000,2.000 L850.000,19.000 L854.000,19.000 L854.000,2.000 L861.000,2.000 L861.000,14.000 L863.000,14.000 L863.000,2.000 L871.000,2.000 L871.000,14.000 L873.000,14.000 L873.000,2.000 L881.000,2.000 L881.000,14.000 L883.000,14.000 L883.000,2.000 L891.000,2.000 L891.000,14.000 L893.000,14.000 L893.000,2.000 L900.000,2.000 L900.000,19.000 L904.000,19.000 L904.000,2.000 L911.000,2.000 L911.000,14.000 L913.000,14.000 L913.000,2.000 L921.000,2.000 L921.000,14.000 L923.000,14.000 L923.000,2.000 L931.000,2.000 L931.000,14.000 L933.000,14.000 L933.000,2.000 L941.000,2.000 L941.000,14.000 L943.000,14.000 L943.000,2.000 L950.000,2.000 L950.000,19.000 L954.000,19.000 L954.000,2.000 L961.000,2.000 L961.000,14.000 L963.000,14.000 L963.000,2.000 L971.000,2.000 L971.000,14.000 L973.000,14.000 L973.000,2.000 L981.000,2.000 L981.000,14.000 L983.000,14.000 L983.000,2.000 L991.000,2.000 L991.000,14.000 L993.000,14.000 L993.000,2.000 L1000.000,2.000 L1000.000,19.000 L1004.000,19.000 L1004.000,2.000 L1011.000,2.000 L1011.000,14.000 L1013.000,14.000 L1013.000,2.000 L1021.000,2.000 L1021.000,14.000 L1023.000,14.000 L1023.000,2.000 L1031.000,2.000 L1031.000,14.000 L1033.000,14.000 L1033.000,2.000 L1041.000,2.000 L1041.000,14.000 L1043.000,14.000 L1043.000,2.000 L1050.000,2.000 L1050.000,19.000 L1054.000,19.000 L1054.000,2.000 L1061.000,2.000 L1061.000,14.000 L1063.000,14.000 L1063.000,2.000 L1071.000,2.000 L1071.000,14.000 L1073.000,14.000 L1073.000,2.000 L1081.000,2.000 L1081.000,14.000 L1083.000,14.000 L1083.000,2.000 L1091.000,2.000 L1091.000,14.000 L1093.000,14.000 L1093.000,2.000 L1100.000,2.000 L1100.000,19.000 L1104.000,19.000 L1104.000,2.000 L1111.000,2.000 L1111.000,14.000 L1113.000,14.000 L1113.000,2.000 L1121.000,2.000 L1121.000,14.000 L1123.000,14.000 L1123.000,2.000 L1131.000,2.000 L1131.000,14.000 L1133.000,14.000 L1133.000,2.000 L1141.000,2.000 L1141.000,14.000 L1143.000,14.000 L1143.000,2.000 L1150.000,2.000 L1150.000,19.000 L1154.000,19.000 L1154.000,2.000 L1161.000,2.000 L1161.000,14.000 L1163.000,14.000 L1163.000,2.000 L1171.000,2.000 L1171.000,14.000 L1173.000,14.000 L1173.000,2.000 L1181.000,2.000 L1181.000,14.000 L1183.000,14.000 L1183.000,2.000 L1191.000,2.000 L1191.000,14.000 L1193.000,14.000 L1193.000,2.000 L1200.000,2.000 L1200.000,19.000 L1204.000,19.000 L1204.000,2.000 L1211.000,2.000 L1211.000,14.000 L1213.000,14.000 L1213.000,2.000 L1221.000,2.000 L1221.000,14.000 L1223.000,14.000 L1223.000,2.000 L1231.000,2.000 L1231.000,14.000 L1233.000,14.000 L1233.000,2.000 L1241.000,2.000 L1241.000,14.000 L1243.000,14.000 L1243.000,2.000 L1250.000,2.000 L1250.000,19.000 L1254.000,19.000 L1254.000,2.000 L1261.000,2.000 L1261.000,14.000 L1263.000,14.000 L1263.000,2.000 L1271.000,2.000 L1271.000,14.000 L1273.000,14.000 L1273.000,2.000 L1281.000,2.000 L1281.000,14.000 L1283.000,14.000 L1283.000,2.000 L1291.000,2.000 L1291.000,14.000 L1293.000,14.000 L1293.000,2.000 L1300.000,2.000 L1300.000,19.000 L1304.000,19.000 L1304.000,2.000 L1311.000,2.000 L1311.000,14.000 L1313.000,14.000 L1313.000,2.000 L1321.000,2.000 L1321.000,14.000 L1323.000,14.000 L1323.000,2.000 L1331.000,2.000 L1331.000,14.000 L1333.000,14.000 L1333.000,2.000 L1341.000,2.000 L1341.000,14.000 L1343.000,14.000 L1343.000,2.000 L1350.000,2.000 L1350.000,19.000 L1354.000,19.000 L1354.000,2.000 L1361.000,2.000 L1361.000,14.000 L1363.000,14.000 L1363.000,2.000 L1371.000,2.000 L1371.000,14.000 L1373.000,14.000 L1373.000,2.000 L1381.000,2.000 L1381.000,14.000 L1383.000,14.000 L1383.000,2.000 L1391.000,2.000 L1391.000,14.000 L1393.000,14.000 L1393.000,2.000 L1400.000,2.000 L1400.000,19.000 L1404.000,19.000 L1404.000,2.000 L1411.000,2.000 L1411.000,14.000 L1413.000,14.000 L1413.000,2.000 L1421.000,2.000 L1421.000,14.000 L1423.000,14.000 L1423.000,2.000 L1431.000,2.000 L1431.000,14.000 L1433.000,14.000 L1433.000,2.000 L1441.000,2.000 L1441.000,14.000 L1443.000,14.000 L1443.000,2.000 L1450.000,2.000 L1450.000,19.000 L1454.000,19.000 L1454.000,2.000 L1461.000,2.000 L1461.000,14.000 L1463.000,14.000 L1463.000,2.000 L1471.000,2.000 L1471.000,14.000 L1473.000,14.000 L1473.000,2.000 L1481.000,2.000 L1481.000,14.000 L1483.000,14.000 L1483.000,2.000 L1491.000,2.000 L1491.000,14.000 L1493.000,14.000 L1493.000,2.000 L1500.000,2.000 L1500.000,19.000 L1504.000,19.000 L1504.000,2.000 L1511.000,2.000 L1511.000,14.000 L1513.000,14.000 L1513.000,2.000 L1521.000,2.000 L1521.000,14.000 L1523.000,14.000 L1523.000,2.000 L1531.000,2.000 L1531.000,14.000 L1533.000,14.000 L1533.000,2.000 L1541.000,2.000 L1541.000,14.000 L1543.000,14.000 L1543.000,2.000 L1550.000,2.000 L1550.000,19.000 L1554.000,19.000 L1554.000,2.000 L1561.000,2.000 L1561.000,14.000 L1563.000,14.000 L1563.000,2.000 L1571.000,2.000 L1571.000,14.000 L1573.000,14.000 L1573.000,2.000 L1581.000,2.000 L1581.000,14.000 L1583.000,14.000 L1583.000,2.000 L1591.000,2.000 L1591.000,14.000 L1593.000,14.000 L1593.000,2.000 L1600.000,2.000 L1600.000,19.000 L1604.000,19.000 L1604.000,2.000 L1611.000,2.000 L1611.000,14.000 L1613.000,14.000 L1613.000,2.000 L1621.000,2.000 L1621.000,14.000 L1623.000,14.000 L1623.000,2.000 L1631.000,2.000 L1631.000,14.000 L1633.000,14.000 L1633.000,2.000 L1641.000,2.000 L1641.000,14.000 L1643.000,14.000 L1643.000,2.000 L1650.000,2.000 L1650.000,19.000 L1654.000,19.000 L1654.000,2.000 L1661.000,2.000 L1661.000,14.000 L1663.000,14.000 L1663.000,2.000 L1671.000,2.000 L1671.000,14.000 L1673.000,14.000 L1673.000,2.000 L1681.000,2.000 L1681.000,14.000 L1683.000,14.000 L1683.000,2.000 L1691.000,2.000 L1691.000,14.000 L1693.000,14.000 L1693.000,2.000 L1700.000,2.000 L1700.000,19.000 L1704.000,19.000 L1704.000,2.000 L1711.000,2.000 L1711.000,14.000 L1713.000,14.000 L1713.000,2.000 L1721.000,2.000 L1721.000,14.000 L1723.000,14.000 L1723.000,2.000 L1731.000,2.000 L1731.000,14.000 L1733.000,14.000 L1733.000,2.000 L1741.000,2.000 L1741.000,14.000 L1743.000,14.000 L1743.000,2.000 L1750.000,2.000 L1750.000,19.000 L1754.000,19.000 L1754.000,2.000 L1761.000,2.000 L1761.000,14.000 L1763.000,14.000 L1763.000,2.000 L1771.000,2.000 L1771.000,14.000 L1773.000,14.000 L1773.000,2.000 L1781.000,2.000 L1781.000,14.000 L1783.000,14.000 L1783.000,2.000 L1791.000,2.000 L1791.000,14.000 L1793.000,14.000 L1793.000,2.000 L1800.000,2.000 L1800.000,19.000 L1804.000,19.000 L1804.000,2.000 L1811.000,2.000 L1811.000,14.000 L1813.000,14.000 L1813.000,2.000 L1821.000,2.000 L1821.000,14.000 L1823.000,14.000 L1823.000,2.000 L1831.000,2.000 L1831.000,14.000 L1833.000,14.000 L1833.000,2.000 L1841.000,2.000 L1841.000,14.000 L1843.000,14.000 L1843.000,2.000 L1850.000,2.000 L1850.000,19.000 L1854.000,19.000 L1854.000,2.000 L1861.000,2.000 L1861.000,14.000 L1863.000,14.000 L1863.000,2.000 L1871.000,2.000 L1871.000,14.000 L1873.000,14.000 L1873.000,2.000 L1881.000,2.000 L1881.000,14.000 L1883.000,14.000 L1883.000,2.000 L1891.000,2.000 L1891.000,14.000 L1893.000,14.000 L1893.000,2.000 L1900.000,2.000 L1900.000,19.000 L1904.000,19.000 L1904.000,2.000 L1911.000,2.000 L1911.000,14.000 L1913.000,14.000 L1913.000,2.000 L1921.000,2.000 L1921.000,14.000 L1923.000,14.000 L1923.000,2.000 L1931.000,2.000 L1931.000,14.000 L1933.000,14.000 L1933.000,2.000 L1941.000,2.000 L1941.000,14.000 L1943.000,14.000 L1943.000,2.000 L1950.000,2.000 L1950.000,19.000 L1954.000,19.000 L1954.000,2.000 L1961.000,2.000 L1961.000,14.000 L1963.000,14.000 L1963.000,2.000 L1971.000,2.000 L1971.000,14.000 L1973.000,14.000 L1973.000,2.000 L1981.000,2.000 L1981.000,14.000 L1983.000,14.000 L1983.000,2.000 L1991.000,2.000 L1991.000,14.000 L1993.000,14.000 L1993.000,2.000 L2000.000,2.000 L2000.000,19.000 L2004.000,19.000 L2004.000,2.000 L2011.000,2.000 L2011.000,14.000 L2013.000,14.000 L2013.000,2.000 L2021.000,2.000 L2021.000,14.000 L2023.000,14.000 L2023.000,2.000 L2031.000,2.000 L2031.000,14.000 L2033.000,14.000 L2033.000,2.000 L2041.000,2.000 L2041.000,14.000 L2043.000,14.000 L2043.000,2.000 L2050.000,2.000 L2050.000,19.000 L2054.000,19.000 L2054.000,2.000 L2061.000,2.000 L2061.000,14.000 L2063.000,14.000 L2063.000,2.000 L2071.000,2.000 L2071.000,14.000 L2073.000,14.000 L2073.000,2.000 L2081.000,2.000 L2081.000,14.000 L2083.000,14.000 L2083.000,2.000 L2091.000,2.000 L2091.000,14.000 L2093.000,14.000 L2093.000,2.000 L2100.000,2.000 L2100.000,19.000 L2104.000,19.000 L2104.000,2.000 L2111.000,2.000 L2111.000,14.000 L2113.000,14.000 L2113.000,2.000 L2121.000,2.000 L2121.000,14.000 L2123.000,14.000 L2123.000,2.000 L2131.000,2.000 L2131.000,14.000 L2133.000,14.000 L2133.000,2.000 L2141.000,2.000 L2141.000,14.000 L2143.000,14.000 L2143.000,2.000 L2150.000,2.000 L2150.000,-0.000 L-700.000,-0.000 L-700.000,19.000 L-696.000,19.000 L-696.000,2.000 L-689.000,2.000 L-689.000,14.000 L-687.000,14.000 L-687.000,2.000 L-679.000,2.000 L-679.000,14.000 L-677.000,14.000 L-677.000,2.000 L-669.000,2.000 L-669.000,14.000 L-667.000,14.000 L-667.000,2.000 L-659.000,2.000 L-659.000,14.000 L-657.000,14.000 L-657.000,2.000 L-650.000,2.000 L-650.000,19.000 L-646.000,19.000 L-646.000,2.000 L-639.000,2.000 L-639.000,14.000 L-637.000,14.000 L-637.000,2.000 L-629.000,2.000 L-629.000,14.000 L-627.000,14.000 L-627.000,2.000 L-619.000,2.000 L-619.000,14.000 L-617.000,14.000 L-617.000,2.000 L-609.000,2.000 L-609.000,14.000 L-607.000,14.000 L-607.000,2.000 L-600.000,2.000 L-600.000,19.000 L-596.000,19.000 L-596.000,2.000 L-589.000,2.000 L-589.000,14.000 L-587.000,14.000 L-587.000,2.000 L-579.000,2.000 L-579.000,14.000 L-577.000,14.000 L-577.000,2.000 L-569.000,2.000 L-569.000,14.000 L-567.000,14.000 L-567.000,2.000 L-559.000,2.000 L-559.000,14.000 L-557.000,14.000 L-557.000,2.000 L-550.000,2.000 L-550.000,19.000 L-546.000,19.000 L-546.000,2.000 L-539.000,2.000 L-539.000,14.000 L-537.000,14.000 L-537.000,2.000 L-529.000,2.000 L-529.000,14.000 L-527.000,14.000 L-527.000,2.000 L-519.000,2.000 L-519.000,14.000 L-517.000,14.000 L-517.000,2.000 L-509.000,2.000 L-509.000,14.000 L-507.000,14.000 L-507.000,2.000 L-500.000,2.000 L-500.000,19.000 L-496.000,19.000 L-496.000,2.000 L-489.000,2.000 L-489.000,14.000 L-487.000,14.000 L-487.000,2.000 L-479.000,2.000 L-479.000,14.000 L-477.000,14.000 L-477.000,2.000 L-469.000,2.000 L-469.000,14.000 L-467.000,14.000 L-467.000,2.000 L-459.000,2.000 L-459.000,14.000 L-457.000,14.000 L-457.000,2.000 L-450.000,2.000 L-450.000,19.000 L-446.000,19.000 L-446.000,2.000 L-439.000,2.000 L-439.000,14.000 L-437.000,14.000 L-437.000,2.000 L-429.000,2.000 L-429.000,14.000 L-427.000,14.000 L-427.000,2.000 L-419.000,2.000 L-419.000,14.000 L-417.000,14.000 L-417.000,2.000 L-409.000,2.000 L-409.000,14.000 L-407.000,14.000 L-407.000,2.000 L-400.000,2.000 L-400.000,19.000 L-396.000,19.000 L-396.000,2.000 L-389.000,2.000 L-389.000,14.000 L-387.000,14.000 L-387.000,2.000 L-379.000,2.000 L-379.000,14.000 L-377.000,14.000 L-377.000,2.000 L-369.000,2.000 L-369.000,14.000 L-367.000,14.000 L-367.000,2.000 L-359.000,2.000 L-359.000,14.000 L-357.000,14.000 L-357.000,2.000 L-350.000,2.000 L-350.000,19.000 L-346.000,19.000 L-346.000,2.000 L-339.000,2.000 L-339.000,14.000 L-337.000,14.000 L-337.000,2.000 L-329.000,2.000 L-329.000,14.000 L-327.000,14.000 L-327.000,2.000 L-319.000,2.000 L-319.000,14.000 L-317.000,14.000 L-317.000,2.000 L-309.000,2.000 L-309.000,14.000 L-307.000,14.000 L-307.000,2.000 L-300.000,2.000 L-300.000,19.000 L-296.000,19.000 L-296.000,2.000 L-289.000,2.000 L-289.000,14.000 L-287.000,14.000 L-287.000,2.000 L-279.000,2.000 L-279.000,14.000 L-277.000,14.000 L-277.000,2.000 L-269.000,2.000 L-269.000,14.000 L-267.000,14.000 L-267.000,2.000 L-259.000,2.000 L-259.000,14.000 L-257.000,14.000 L-257.000,2.000 L-250.000,2.000 L-250.000,19.000 L-246.000,19.000 L-246.000,2.000 L-239.000,2.000 L-239.000,14.000 L-237.000,14.000 L-237.000,2.000 L-229.000,2.000 L-229.000,14.000 L-227.000,14.000 L-227.000,2.000 L-219.000,2.000 L-219.000,14.000 L-217.000,14.000 L-217.000,2.000 L-209.000,2.000 L-209.000,14.000 L-207.000,14.000 L-207.000,2.000 L-200.000,2.000 L-200.000,19.000 L-196.000,19.000 L-196.000,2.000 L-189.000,2.000 L-189.000,14.000 L-187.000,14.000 L-187.000,2.000 L-179.000,2.000 L-179.000,14.000 L-177.000,14.000 L-177.000,2.000 L-169.000,2.000 L-169.000,14.000 L-167.000,14.000 L-167.000,2.000 L-159.000,2.000 L-159.000,14.000 L-157.000,14.000 L-157.000,2.000 L-150.000,2.000 L-150.000,19.000 L-146.000,19.000 L-146.000,2.000 L-139.000,2.000 L-139.000,14.000 L-137.000,14.000 L-137.000,2.000 L-129.000,2.000 L-129.000,14.000 L-127.000,14.000 L-127.000,2.000 L-119.000,2.000 L-119.000,14.000 L-117.000,14.000 L-117.000,2.000 L-109.000,2.000 L-109.000,14.000 L-107.000,14.000 L-107.000,2.000 L-100.000,2.000 L-100.000,19.000 L-96.000,19.000 L-96.000,2.000 L-89.000,2.000 L-89.000,14.000 L-87.000,14.000 L-87.000,2.000 L-79.000,2.000 L-79.000,14.000 L-77.000,14.000 L-77.000,2.000 L-69.000,2.000 L-69.000,14.000 L-67.000,14.000 L-67.000,2.000 L-59.000,2.000 L-59.000,14.000 L-57.000,14.000 L-57.000,2.000 L-50.000,2.000 L-50.000,19.000 L-46.000,19.000 L-46.000,2.000 L-39.000,2.000 L-39.000,14.000 L-37.000,14.000 L-37.000,2.000 L-29.000,2.000 L-29.000,14.000 L-27.000,14.000 L-27.000,2.000 L-19.000,2.000 L-19.000,14.000 L-17.000,14.000 L-17.000,2.000 L-9.000,2.000 L-9.000,14.000 L-7.000,14.000 L-7.000,2.000 L-0.000,2.000 L-0.000,19.000 L4.000,19.000 L4.000,2.000 L11.000,2.000 L11.000,14.000 L13.000,14.000 L13.000,2.000 L21.000,2.000 L21.000,14.000 L23.000,14.000 L23.000,2.000 L31.000,2.000 L31.000,14.000 L33.000,14.000 L33.000,2.000 L41.000,2.000 L41.000,14.000 L43.000,14.000 L43.000,2.000 L50.000,2.000 L50.000,19.000 L54.000,19.000 L54.000,2.000 L61.000,2.000 L61.000,14.000 L63.000,14.000 L63.000,2.000 L71.000,2.000 L71.000,14.000 L73.000,14.000 L73.000,2.000 L81.000,2.000 L81.000,14.000 L83.000,14.000 L83.000,2.000 L91.000,2.000 L91.000,14.000 L93.000,14.000 L93.000,2.000 L100.000,2.000 L100.000,19.000 L104.000,19.000 L104.000,2.000 L111.000,2.000 L111.000,14.000 L113.000,14.000 L113.000,2.000 L121.000,2.000 L121.000,14.000 L123.000,14.000 L123.000,2.000 L131.000,2.000 L131.000,14.000 L133.000,14.000 L133.000,2.000 L141.000,2.000 L141.000,14.000 L143.000,14.000 L143.000,2.000 L150.000,2.000 L150.000,19.000 L154.000,19.000 L154.000,2.000 L161.000,2.000 L161.000,14.000 L163.000,14.000 L163.000,2.000 L171.000,2.000 L171.000,14.000 L173.000,14.000 L173.000,2.000 L181.000,2.000 L181.000,14.000 L183.000,14.000 L183.000,2.000 L191.000,2.000 L191.000,14.000 L193.000,14.000 L193.000,2.000 L200.000,2.000 L200.000,19.000 L204.000,19.000 L204.000,2.000 L211.000,2.000 L211.000,14.000 L213.000,14.000 L213.000,2.000 L221.000,2.000 L221.000,14.000 L223.000,14.000 L223.000,2.000 L231.000,2.000 L231.000,14.000 L233.000,14.000 L233.000,2.000 L241.000,2.000 L241.000,14.000 L243.000,14.000 L243.000,2.000 L250.000,2.000 Z" class="cls-1"/>
</svg>
