<svg xmlns="http://www.w3.org/2000/svg" xmlns:xlink="http://www.w3.org/1999/xlink" preserveAspectRatio="xMidYMid" width="16" height="22" viewBox="0 0 16 22">
  <defs>
    <style>
      .cls-1 {
        fill: #fff;
        fill-rule: evenodd;
      }
    </style>
  </defs>
  <path d="M13.313,16.500 L8.010,16.500 C7.273,16.500 6.646,16.236 6.131,15.705 C5.614,15.175 5.358,14.533 5.358,13.775 L5.358,11.843 L12.915,11.843 C13.596,11.843 14.183,11.592 14.670,11.094 C15.158,10.592 15.403,9.992 15.403,9.293 C15.403,8.592 15.158,7.993 14.669,7.493 C14.180,6.993 13.591,6.743 12.907,6.743 L5.358,6.743 L5.358,2.752 C5.358,1.996 5.094,1.350 4.572,0.811 C4.052,0.272 3.422,0.001 2.691,0.001 C1.940,0.001 1.300,0.267 0.780,0.795 C0.258,1.325 -0.003,1.977 -0.003,2.754 L-0.003,13.776 C-0.003,16.043 0.780,17.980 2.346,19.588 C3.914,21.198 5.804,22.001 8.013,22.001 L13.315,22.001 C14.051,22.001 14.683,21.730 15.209,21.190 C15.735,20.653 15.997,20.005 15.997,19.251 C15.997,18.496 15.735,17.849 15.209,17.310 C14.683,16.772 14.050,16.500 13.313,16.500 Z" class="cls-1"/>
</svg>
