<svg xmlns="http://www.w3.org/2000/svg" xmlns:xlink="http://www.w3.org/1999/xlink" preserveAspectRatio="xMidYMid" width="25" height="9" viewBox="0 0 25 9">
  <defs>
    <style>
      .cls-1 {
        fill: #000;
        fill-rule: evenodd;
        fill-opacity:0.3;
      }
    </style>
  </defs>
  <path d="M675.000,-0.000 L673.000,-0.000 L673.000,8.000 L670.000,8.000 L670.000,2.000 L669.000,2.000 L669.000,8.000 L665.000,8.000 L665.000,2.000 L664.000,2.000 L664.000,8.000 L660.000,8.000 L660.000,2.000 L659.000,2.000 L659.000,8.000 L655.000,8.000 L655.000,2.000 L654.000,2.000 L654.000,8.000 L651.000,8.000 L651.000,-0.000 L649.000,-0.000 L649.000,8.000 L645.000,8.000 L645.000,2.000 L644.000,2.000 L644.000,8.000 L640.000,8.000 L640.000,2.000 L639.000,2.000 L639.000,8.000 L635.000,8.000 L635.000,2.000 L634.000,2.000 L634.000,8.000 L630.000,8.000 L630.000,2.000 L629.000,2.000 L629.000,8.000 L626.000,8.000 L626.000,-0.000 L624.000,-0.000 L624.000,8.000 L620.000,8.000 L620.000,2.000 L619.000,2.000 L619.000,8.000 L615.000,8.000 L615.000,2.000 L614.000,2.000 L614.000,8.000 L610.000,8.000 L610.000,2.000 L609.000,2.000 L609.000,8.000 L605.000,8.000 L605.000,2.000 L604.000,2.000 L604.000,8.000 L601.000,8.000 L601.000,-0.000 L599.000,-0.000 L599.000,8.000 L595.000,8.000 L595.000,2.000 L594.000,2.000 L594.000,8.000 L590.000,8.000 L590.000,2.000 L589.000,2.000 L589.000,8.000 L585.000,8.000 L585.000,2.000 L584.000,2.000 L584.000,8.000 L580.000,8.000 L580.000,2.000 L579.000,2.000 L579.000,8.000 L576.000,8.000 L576.000,-0.000 L574.000,-0.000 L574.000,8.000 L570.000,8.000 L570.000,2.000 L569.000,2.000 L569.000,8.000 L565.000,8.000 L565.000,2.000 L564.000,2.000 L564.000,8.000 L560.000,8.000 L560.000,2.000 L559.000,2.000 L559.000,8.000 L555.000,8.000 L555.000,2.000 L554.000,2.000 L554.000,8.000 L551.000,8.000 L551.000,-0.000 L549.000,-0.000 L549.000,8.000 L545.000,8.000 L545.000,2.000 L544.000,2.000 L544.000,8.000 L540.000,8.000 L540.000,2.000 L539.000,2.000 L539.000,8.000 L535.000,8.000 L535.000,2.000 L534.000,2.000 L534.000,8.000 L530.000,8.000 L530.000,2.000 L529.000,2.000 L529.000,8.000 L526.000,8.000 L526.000,-0.000 L524.000,-0.000 L524.000,8.000 L520.000,8.000 L520.000,2.000 L519.000,2.000 L519.000,8.000 L515.000,8.000 L515.000,2.000 L514.000,2.000 L514.000,8.000 L510.000,8.000 L510.000,2.000 L509.000,2.000 L509.000,8.000 L505.000,8.000 L505.000,2.000 L504.000,2.000 L504.000,8.000 L501.000,8.000 L501.000,-0.000 L499.000,-0.000 L499.000,8.000 L495.000,8.000 L495.000,2.000 L494.000,2.000 L494.000,8.000 L490.000,8.000 L490.000,2.000 L489.000,2.000 L489.000,8.000 L485.000,8.000 L485.000,2.000 L484.000,2.000 L484.000,8.000 L480.000,8.000 L480.000,2.000 L479.000,2.000 L479.000,8.000 L476.000,8.000 L476.000,-0.000 L474.000,-0.000 L474.000,8.000 L470.000,8.000 L470.000,2.000 L469.000,2.000 L469.000,8.000 L465.000,8.000 L465.000,2.000 L464.000,2.000 L464.000,8.000 L460.000,8.000 L460.000,2.000 L459.000,2.000 L459.000,8.000 L455.000,8.000 L455.000,2.000 L454.000,2.000 L454.000,8.000 L451.000,8.000 L451.000,-0.000 L449.000,-0.000 L449.000,8.000 L445.000,8.000 L445.000,2.000 L444.000,2.000 L444.000,8.000 L440.000,8.000 L440.000,2.000 L439.000,2.000 L439.000,8.000 L435.000,8.000 L435.000,2.000 L434.000,2.000 L434.000,8.000 L430.000,8.000 L430.000,2.000 L429.000,2.000 L429.000,8.000 L426.000,8.000 L426.000,-0.000 L424.000,-0.000 L424.000,8.000 L420.000,8.000 L420.000,2.000 L419.000,2.000 L419.000,8.000 L415.000,8.000 L415.000,2.000 L414.000,2.000 L414.000,8.000 L410.000,8.000 L410.000,2.000 L409.000,2.000 L409.000,8.000 L405.000,8.000 L405.000,2.000 L404.000,2.000 L404.000,8.000 L401.000,8.000 L401.000,-0.000 L399.000,-0.000 L399.000,8.000 L395.000,8.000 L395.000,2.000 L394.000,2.000 L394.000,8.000 L390.000,8.000 L390.000,2.000 L389.000,2.000 L389.000,8.000 L385.000,8.000 L385.000,2.000 L384.000,2.000 L384.000,8.000 L380.000,8.000 L380.000,2.000 L379.000,2.000 L379.000,8.000 L376.000,8.000 L376.000,-0.000 L374.000,-0.000 L374.000,8.000 L370.000,8.000 L370.000,2.000 L369.000,2.000 L369.000,8.000 L365.000,8.000 L365.000,2.000 L364.000,2.000 L364.000,8.000 L360.000,8.000 L360.000,2.000 L359.000,2.000 L359.000,8.000 L355.000,8.000 L355.000,2.000 L354.000,2.000 L354.000,8.000 L351.000,8.000 L351.000,-0.000 L349.000,-0.000 L349.000,8.000 L345.000,8.000 L345.000,2.000 L344.000,2.000 L344.000,8.000 L340.000,8.000 L340.000,2.000 L339.000,2.000 L339.000,8.000 L335.000,8.000 L335.000,2.000 L334.000,2.000 L334.000,8.000 L330.000,8.000 L330.000,2.000 L329.000,2.000 L329.000,8.000 L326.000,8.000 L326.000,-0.000 L324.000,-0.000 L324.000,8.000 L320.000,8.000 L320.000,2.000 L319.000,2.000 L319.000,8.000 L315.000,8.000 L315.000,2.000 L314.000,2.000 L314.000,8.000 L310.000,8.000 L310.000,2.000 L309.000,2.000 L309.000,8.000 L305.000,8.000 L305.000,2.000 L304.000,2.000 L304.000,8.000 L301.000,8.000 L301.000,-0.000 L299.000,-0.000 L299.000,8.000 L295.000,8.000 L295.000,2.000 L294.000,2.000 L294.000,8.000 L290.000,8.000 L290.000,2.000 L289.000,2.000 L289.000,8.000 L285.000,8.000 L285.000,2.000 L284.000,2.000 L284.000,8.000 L280.000,8.000 L280.000,2.000 L279.000,2.000 L279.000,8.000 L276.000,8.000 L276.000,-0.000 L274.000,-0.000 L274.000,8.000 L270.000,8.000 L270.000,2.000 L269.000,2.000 L269.000,8.000 L265.000,8.000 L265.000,2.000 L264.000,2.000 L264.000,8.000 L260.000,8.000 L260.000,2.000 L259.000,2.000 L259.000,8.000 L255.000,8.000 L255.000,2.000 L254.000,2.000 L254.000,8.000 L251.000,8.000 L251.000,-0.000 L249.000,-0.000 L249.000,8.000 L245.000,8.000 L245.000,2.000 L244.000,2.000 L244.000,8.000 L240.000,8.000 L240.000,2.000 L239.000,2.000 L239.000,8.000 L235.000,8.000 L235.000,2.000 L234.000,2.000 L234.000,8.000 L230.000,8.000 L230.000,2.000 L229.000,2.000 L229.000,8.000 L226.000,8.000 L226.000,-0.000 L224.000,-0.000 L224.000,8.000 L220.000,8.000 L220.000,2.000 L219.000,2.000 L219.000,8.000 L215.000,8.000 L215.000,2.000 L214.000,2.000 L214.000,8.000 L210.000,8.000 L210.000,2.000 L209.000,2.000 L209.000,8.000 L205.000,8.000 L205.000,3.000 L204.000,3.000 L204.000,8.000 L201.000,8.000 L201.000,-0.000 L199.000,-0.000 L199.000,8.000 L196.000,8.000 L196.000,2.000 L195.000,2.000 L195.000,8.000 L191.000,8.000 L191.000,2.000 L190.000,2.000 L190.000,8.000 L186.000,8.000 L186.000,2.000 L185.000,2.000 L185.000,8.000 L181.000,8.000 L181.000,2.000 L180.000,2.000 L180.000,8.000 L177.000,8.000 L177.000,-0.000 L175.000,-0.000 L175.000,8.000 L171.000,8.000 L171.000,2.000 L170.000,2.000 L170.000,8.000 L166.000,8.000 L166.000,2.000 L165.000,2.000 L165.000,8.000 L161.000,8.000 L161.000,2.000 L160.000,2.000 L160.000,8.000 L156.000,8.000 L156.000,2.000 L155.000,2.000 L155.000,8.000 L152.000,8.000 L152.000,-0.000 L150.000,-0.000 L150.000,8.000 L146.000,8.000 L146.000,2.000 L145.000,2.000 L145.000,8.000 L141.000,8.000 L141.000,2.000 L140.000,2.000 L140.000,8.000 L136.000,8.000 L136.000,2.000 L135.000,2.000 L135.000,8.000 L131.000,8.000 L131.000,2.000 L130.000,2.000 L130.000,8.000 L127.000,8.000 L127.000,-0.000 L125.000,-0.000 L125.000,8.000 L121.000,8.000 L121.000,2.000 L120.000,2.000 L120.000,8.000 L116.000,8.000 L116.000,2.000 L115.000,2.000 L115.000,8.000 L111.000,8.000 L111.000,2.000 L110.000,2.000 L110.000,8.000 L106.000,8.000 L106.000,2.000 L105.000,2.000 L105.000,8.000 L102.000,8.000 L102.000,-0.000 L100.000,-0.000 L100.000,8.000 L96.000,8.000 L96.000,2.000 L95.000,2.000 L95.000,8.000 L91.000,8.000 L91.000,2.000 L90.000,2.000 L90.000,8.000 L86.000,8.000 L86.000,2.000 L85.000,2.000 L85.000,8.000 L81.000,8.000 L81.000,2.000 L80.000,2.000 L80.000,8.000 L77.000,8.000 L77.000,-0.000 L75.000,-0.000 L75.000,8.000 L71.000,8.000 L71.000,2.000 L70.000,2.000 L70.000,8.000 L66.000,8.000 L66.000,2.000 L65.000,2.000 L65.000,8.000 L61.000,8.000 L61.000,2.000 L60.000,2.000 L60.000,8.000 L56.000,8.000 L56.000,2.000 L55.000,2.000 L55.000,8.000 L52.000,8.000 L52.000,-0.000 L50.000,-0.000 L50.000,8.000 L46.000,8.000 L46.000,2.000 L45.000,2.000 L45.000,8.000 L41.000,8.000 L41.000,2.000 L40.000,2.000 L40.000,8.000 L36.000,8.000 L36.000,2.000 L35.000,2.000 L35.000,8.000 L31.000,8.000 L31.000,2.000 L30.000,2.000 L30.000,8.000 L27.000,8.000 L27.000,-0.000 L25.000,-0.000 L25.000,8.000 L21.000,8.000 L21.000,2.000 L20.000,2.000 L20.000,8.000 L16.000,8.000 L16.000,2.000 L15.000,2.000 L15.000,8.000 L11.000,8.000 L11.000,2.000 L10.000,2.000 L10.000,8.000 L6.000,8.000 L6.000,2.000 L5.000,2.000 L5.000,8.000 L2.000,8.000 L2.000,-0.000 L-0.000,-0.000 L-0.000,8.000 L-4.000,8.000 L-4.000,2.000 L-5.000,2.000 L-5.000,8.000 L-9.000,8.000 L-9.000,2.000 L-10.000,2.000 L-10.000,8.000 L-14.000,8.000 L-14.000,2.000 L-15.000,2.000 L-15.000,8.000 L-19.000,8.000 L-19.000,2.000 L-20.000,2.000 L-20.000,8.000 L-23.000,8.000 L-23.000,-0.000 L-25.000,-0.000 L-25.000,8.000 L-29.000,8.000 L-29.000,2.000 L-30.000,2.000 L-30.000,8.000 L-34.000,8.000 L-34.000,2.000 L-35.000,2.000 L-35.000,8.000 L-39.000,8.000 L-39.000,2.000 L-40.000,2.000 L-40.000,8.000 L-44.000,8.000 L-44.000,2.000 L-45.000,2.000 L-45.000,8.000 L-48.000,8.000 L-48.000,-0.000 L-50.000,-0.000 L-50.000,8.000 L-54.000,8.000 L-54.000,2.000 L-55.000,2.000 L-55.000,8.000 L-59.000,8.000 L-59.000,2.000 L-60.000,2.000 L-60.000,8.000 L-64.000,8.000 L-64.000,2.000 L-65.000,2.000 L-65.000,8.000 L-69.000,8.000 L-69.000,2.000 L-70.000,2.000 L-70.000,8.000 L-73.000,8.000 L-73.000,-0.000 L-75.000,-0.000 L-75.000,8.000 L-79.000,8.000 L-79.000,2.000 L-80.000,2.000 L-80.000,8.000 L-84.000,8.000 L-84.000,2.000 L-85.000,2.000 L-85.000,8.000 L-89.000,8.000 L-89.000,2.000 L-90.000,2.000 L-90.000,8.000 L-94.000,8.000 L-94.000,2.000 L-95.000,2.000 L-95.000,8.000 L-98.000,8.000 L-98.000,-0.000 L-100.000,-0.000 L-100.000,8.000 L-104.000,8.000 L-104.000,2.000 L-105.000,2.000 L-105.000,8.000 L-109.000,8.000 L-109.000,2.000 L-110.000,2.000 L-110.000,8.000 L-114.000,8.000 L-114.000,2.000 L-115.000,2.000 L-115.000,8.000 L-119.000,8.000 L-119.000,2.000 L-120.000,2.000 L-120.000,8.000 L-123.000,8.000 L-123.000,-0.000 L-125.000,-0.000 L-125.000,8.000 L-129.000,8.000 L-129.000,2.000 L-130.000,2.000 L-130.000,8.000 L-134.000,8.000 L-134.000,2.000 L-135.000,2.000 L-135.000,8.000 L-139.000,8.000 L-139.000,2.000 L-140.000,2.000 L-140.000,8.000 L-144.000,8.000 L-144.000,2.000 L-145.000,2.000 L-145.000,8.000 L-148.000,8.000 L-148.000,-0.000 L-150.000,-0.000 L-150.000,8.000 L-154.000,8.000 L-154.000,2.000 L-155.000,2.000 L-155.000,8.000 L-159.000,8.000 L-159.000,2.000 L-160.000,2.000 L-160.000,8.000 L-164.000,8.000 L-164.000,2.000 L-165.000,2.000 L-165.000,8.000 L-169.000,8.000 L-169.000,2.000 L-170.000,2.000 L-170.000,8.000 L-173.000,8.000 L-173.000,-0.000 L-175.000,-0.000 L-175.000,8.000 L-179.000,8.000 L-179.000,2.000 L-180.000,2.000 L-180.000,8.000 L-184.000,8.000 L-184.000,2.000 L-185.000,2.000 L-185.000,8.000 L-189.000,8.000 L-189.000,2.000 L-190.000,2.000 L-190.000,8.000 L-194.000,8.000 L-194.000,2.000 L-195.000,2.000 L-195.000,8.000 L-198.000,8.000 L-198.000,-0.000 L-200.000,-0.000 L-200.000,8.000 L-204.000,8.000 L-204.000,2.000 L-205.000,2.000 L-205.000,8.000 L-209.000,8.000 L-209.000,2.000 L-210.000,2.000 L-210.000,8.000 L-214.000,8.000 L-214.000,2.000 L-215.000,2.000 L-215.000,8.000 L-219.000,8.000 L-219.000,2.000 L-220.000,2.000 L-220.000,8.000 L-223.000,8.000 L-223.000,-0.000 L-225.000,-0.000 L-225.000,8.000 L-229.000,8.000 L-229.000,2.000 L-230.000,2.000 L-230.000,8.000 L-234.000,8.000 L-234.000,2.000 L-235.000,2.000 L-235.000,8.000 L-239.000,8.000 L-239.000,2.000 L-240.000,2.000 L-240.000,8.000 L-244.000,8.000 L-244.000,2.000 L-245.000,2.000 L-245.000,8.000 L-248.000,8.000 L-248.000,-0.000 L-250.000,-0.000 L-250.000,8.000 L-254.000,8.000 L-254.000,2.000 L-255.000,2.000 L-255.000,8.000 L-259.000,8.000 L-259.000,2.000 L-260.000,2.000 L-260.000,8.000 L-264.000,8.000 L-264.000,2.000 L-265.000,2.000 L-265.000,8.000 L-269.000,8.000 L-269.000,3.000 L-270.000,3.000 L-270.000,8.000 L-273.000,8.000 L-273.000,-0.000 L-275.000,-0.000 L-275.000,9.000 L1622.000,9.000 L1622.000,8.000 L1618.000,8.000 L1618.000,2.000 L1617.000,2.000 L1617.000,8.000 L1613.000,8.000 L1613.000,2.000 L1612.000,2.000 L1612.000,8.000 L1608.000,8.000 L1608.000,2.000 L1607.000,2.000 L1607.000,8.000 L1603.000,8.000 L1603.000,2.000 L1602.000,2.000 L1602.000,8.000 L1599.000,8.000 L1599.000,-0.000 L1597.000,-0.000 L1597.000,8.000 L1593.000,8.000 L1593.000,2.000 L1592.000,2.000 L1592.000,8.000 L1588.000,8.000 L1588.000,2.000 L1587.000,2.000 L1587.000,8.000 L1583.000,8.000 L1583.000,2.000 L1582.000,2.000 L1582.000,8.000 L1578.000,8.000 L1578.000,2.000 L1577.000,2.000 L1577.000,8.000 L1574.000,8.000 L1574.000,-0.000 L1572.000,-0.000 L1572.000,8.000 L1568.000,8.000 L1568.000,2.000 L1567.000,2.000 L1567.000,8.000 L1563.000,8.000 L1563.000,2.000 L1562.000,2.000 L1562.000,8.000 L1558.000,8.000 L1558.000,2.000 L1557.000,2.000 L1557.000,8.000 L1553.000,8.000 L1553.000,2.000 L1552.000,2.000 L1552.000,8.000 L1549.000,8.000 L1549.000,-0.000 L1547.000,-0.000 L1547.000,8.000 L1543.000,8.000 L1543.000,2.000 L1542.000,2.000 L1542.000,8.000 L1538.000,8.000 L1538.000,2.000 L1537.000,2.000 L1537.000,8.000 L1533.000,8.000 L1533.000,2.000 L1532.000,2.000 L1532.000,8.000 L1528.000,8.000 L1528.000,2.000 L1527.000,2.000 L1527.000,8.000 L1524.000,8.000 L1524.000,-0.000 L1522.000,-0.000 L1522.000,8.000 L1518.000,8.000 L1518.000,2.000 L1517.000,2.000 L1517.000,8.000 L1513.000,8.000 L1513.000,2.000 L1512.000,2.000 L1512.000,8.000 L1508.000,8.000 L1508.000,2.000 L1507.000,2.000 L1507.000,8.000 L1503.000,8.000 L1503.000,2.000 L1502.000,2.000 L1502.000,8.000 L1499.000,8.000 L1499.000,-0.000 L1497.000,-0.000 L1497.000,8.000 L1493.000,8.000 L1493.000,2.000 L1492.000,2.000 L1492.000,8.000 L1488.000,8.000 L1488.000,2.000 L1487.000,2.000 L1487.000,8.000 L1483.000,8.000 L1483.000,2.000 L1482.000,2.000 L1482.000,8.000 L1478.000,8.000 L1478.000,2.000 L1477.000,2.000 L1477.000,8.000 L1474.000,8.000 L1474.000,-0.000 L1472.000,-0.000 L1472.000,8.000 L1468.000,8.000 L1468.000,2.000 L1467.000,2.000 L1467.000,8.000 L1463.000,8.000 L1463.000,2.000 L1462.000,2.000 L1462.000,8.000 L1458.000,8.000 L1458.000,2.000 L1457.000,2.000 L1457.000,8.000 L1453.000,8.000 L1453.000,2.000 L1452.000,2.000 L1452.000,8.000 L1449.000,8.000 L1449.000,-0.000 L1447.000,-0.000 L1447.000,8.000 L1443.000,8.000 L1443.000,2.000 L1442.000,2.000 L1442.000,8.000 L1438.000,8.000 L1438.000,2.000 L1437.000,2.000 L1437.000,8.000 L1433.000,8.000 L1433.000,2.000 L1432.000,2.000 L1432.000,8.000 L1428.000,8.000 L1428.000,2.000 L1427.000,2.000 L1427.000,8.000 L1424.000,8.000 L1424.000,-0.000 L1422.000,-0.000 L1422.000,8.000 L1418.000,8.000 L1418.000,2.000 L1417.000,2.000 L1417.000,8.000 L1413.000,8.000 L1413.000,2.000 L1412.000,2.000 L1412.000,8.000 L1408.000,8.000 L1408.000,2.000 L1407.000,2.000 L1407.000,8.000 L1403.000,8.000 L1403.000,2.000 L1402.000,2.000 L1402.000,8.000 L1399.000,8.000 L1399.000,-0.000 L1397.000,-0.000 L1397.000,8.000 L1393.000,8.000 L1393.000,2.000 L1392.000,2.000 L1392.000,8.000 L1388.000,8.000 L1388.000,2.000 L1387.000,2.000 L1387.000,8.000 L1383.000,8.000 L1383.000,2.000 L1382.000,2.000 L1382.000,8.000 L1378.000,8.000 L1378.000,2.000 L1377.000,2.000 L1377.000,8.000 L1374.000,8.000 L1374.000,-0.000 L1372.000,-0.000 L1372.000,8.000 L1368.000,8.000 L1368.000,2.000 L1367.000,2.000 L1367.000,8.000 L1363.000,8.000 L1363.000,2.000 L1362.000,2.000 L1362.000,8.000 L1358.000,8.000 L1358.000,2.000 L1357.000,2.000 L1357.000,8.000 L1353.000,8.000 L1353.000,2.000 L1352.000,2.000 L1352.000,8.000 L1349.000,8.000 L1349.000,-0.000 L1347.000,-0.000 L1347.000,8.000 L1343.000,8.000 L1343.000,2.000 L1342.000,2.000 L1342.000,8.000 L1338.000,8.000 L1338.000,2.000 L1337.000,2.000 L1337.000,8.000 L1333.000,8.000 L1333.000,2.000 L1332.000,2.000 L1332.000,8.000 L1328.000,8.000 L1328.000,2.000 L1327.000,2.000 L1327.000,8.000 L1324.000,8.000 L1324.000,-0.000 L1322.000,-0.000 L1322.000,8.000 L1318.000,8.000 L1318.000,2.000 L1317.000,2.000 L1317.000,8.000 L1313.000,8.000 L1313.000,2.000 L1312.000,2.000 L1312.000,8.000 L1308.000,8.000 L1308.000,2.000 L1307.000,2.000 L1307.000,8.000 L1303.000,8.000 L1303.000,2.000 L1302.000,2.000 L1302.000,8.000 L1299.000,8.000 L1299.000,-0.000 L1297.000,-0.000 L1297.000,8.000 L1293.000,8.000 L1293.000,2.000 L1292.000,2.000 L1292.000,8.000 L1288.000,8.000 L1288.000,2.000 L1287.000,2.000 L1287.000,8.000 L1283.000,8.000 L1283.000,2.000 L1282.000,2.000 L1282.000,8.000 L1278.000,8.000 L1278.000,2.000 L1277.000,2.000 L1277.000,8.000 L1274.000,8.000 L1274.000,-0.000 L1272.000,-0.000 L1272.000,8.000 L1268.000,8.000 L1268.000,2.000 L1267.000,2.000 L1267.000,8.000 L1263.000,8.000 L1263.000,2.000 L1262.000,2.000 L1262.000,8.000 L1258.000,8.000 L1258.000,2.000 L1257.000,2.000 L1257.000,8.000 L1253.000,8.000 L1253.000,2.000 L1252.000,2.000 L1252.000,8.000 L1249.000,8.000 L1249.000,-0.000 L1247.000,-0.000 L1247.000,8.000 L1243.000,8.000 L1243.000,2.000 L1242.000,2.000 L1242.000,8.000 L1238.000,8.000 L1238.000,2.000 L1237.000,2.000 L1237.000,8.000 L1233.000,8.000 L1233.000,2.000 L1232.000,2.000 L1232.000,8.000 L1228.000,8.000 L1228.000,2.000 L1227.000,2.000 L1227.000,8.000 L1224.000,8.000 L1224.000,-0.000 L1222.000,-0.000 L1222.000,8.000 L1218.000,8.000 L1218.000,2.000 L1217.000,2.000 L1217.000,8.000 L1213.000,8.000 L1213.000,2.000 L1212.000,2.000 L1212.000,8.000 L1208.000,8.000 L1208.000,2.000 L1207.000,2.000 L1207.000,8.000 L1203.000,8.000 L1203.000,2.000 L1202.000,2.000 L1202.000,8.000 L1199.000,8.000 L1199.000,-0.000 L1197.000,-0.000 L1197.000,8.000 L1193.000,8.000 L1193.000,2.000 L1192.000,2.000 L1192.000,8.000 L1188.000,8.000 L1188.000,2.000 L1187.000,2.000 L1187.000,8.000 L1183.000,8.000 L1183.000,2.000 L1182.000,2.000 L1182.000,8.000 L1178.000,8.000 L1178.000,2.000 L1177.000,2.000 L1177.000,8.000 L1174.000,8.000 L1174.000,-0.000 L1172.000,-0.000 L1172.000,8.000 L1168.000,8.000 L1168.000,2.000 L1167.000,2.000 L1167.000,8.000 L1163.000,8.000 L1163.000,2.000 L1162.000,2.000 L1162.000,8.000 L1158.000,8.000 L1158.000,2.000 L1157.000,2.000 L1157.000,8.000 L1153.000,8.000 L1153.000,3.000 L1152.000,3.000 L1152.000,8.000 L1149.000,8.000 L1149.000,-0.000 L1147.000,-0.000 L1147.000,8.000 L1144.000,8.000 L1144.000,2.000 L1143.000,2.000 L1143.000,8.000 L1139.000,8.000 L1139.000,2.000 L1138.000,2.000 L1138.000,8.000 L1134.000,8.000 L1134.000,2.000 L1133.000,2.000 L1133.000,8.000 L1129.000,8.000 L1129.000,2.000 L1128.000,2.000 L1128.000,8.000 L1125.000,8.000 L1125.000,-0.000 L1123.000,-0.000 L1123.000,8.000 L1119.000,8.000 L1119.000,2.000 L1118.000,2.000 L1118.000,8.000 L1114.000,8.000 L1114.000,2.000 L1113.000,2.000 L1113.000,8.000 L1109.000,8.000 L1109.000,2.000 L1108.000,2.000 L1108.000,8.000 L1104.000,8.000 L1104.000,2.000 L1103.000,2.000 L1103.000,8.000 L1100.000,8.000 L1100.000,-0.000 L1098.000,-0.000 L1098.000,8.000 L1094.000,8.000 L1094.000,2.000 L1093.000,2.000 L1093.000,8.000 L1089.000,8.000 L1089.000,2.000 L1088.000,2.000 L1088.000,8.000 L1084.000,8.000 L1084.000,2.000 L1083.000,2.000 L1083.000,8.000 L1079.000,8.000 L1079.000,2.000 L1078.000,2.000 L1078.000,8.000 L1075.000,8.000 L1075.000,-0.000 L1073.000,-0.000 L1073.000,8.000 L1069.000,8.000 L1069.000,2.000 L1068.000,2.000 L1068.000,8.000 L1064.000,8.000 L1064.000,2.000 L1063.000,2.000 L1063.000,8.000 L1059.000,8.000 L1059.000,2.000 L1058.000,2.000 L1058.000,8.000 L1054.000,8.000 L1054.000,2.000 L1053.000,2.000 L1053.000,8.000 L1050.000,8.000 L1050.000,-0.000 L1048.000,-0.000 L1048.000,8.000 L1044.000,8.000 L1044.000,2.000 L1043.000,2.000 L1043.000,8.000 L1039.000,8.000 L1039.000,2.000 L1038.000,2.000 L1038.000,8.000 L1034.000,8.000 L1034.000,2.000 L1033.000,2.000 L1033.000,8.000 L1029.000,8.000 L1029.000,2.000 L1028.000,2.000 L1028.000,8.000 L1025.000,8.000 L1025.000,-0.000 L1023.000,-0.000 L1023.000,8.000 L1019.000,8.000 L1019.000,2.000 L1018.000,2.000 L1018.000,8.000 L1014.000,8.000 L1014.000,2.000 L1013.000,2.000 L1013.000,8.000 L1009.000,8.000 L1009.000,2.000 L1008.000,2.000 L1008.000,8.000 L1004.000,8.000 L1004.000,2.000 L1003.000,2.000 L1003.000,8.000 L1000.000,8.000 L1000.000,-0.000 L998.000,-0.000 L998.000,8.000 L994.000,8.000 L994.000,2.000 L993.000,2.000 L993.000,8.000 L989.000,8.000 L989.000,2.000 L988.000,2.000 L988.000,8.000 L984.000,8.000 L984.000,2.000 L983.000,2.000 L983.000,8.000 L979.000,8.000 L979.000,2.000 L978.000,2.000 L978.000,8.000 L975.000,8.000 L975.000,-0.000 L973.000,-0.000 L973.000,8.000 L969.000,8.000 L969.000,2.000 L968.000,2.000 L968.000,8.000 L964.000,8.000 L964.000,2.000 L963.000,2.000 L963.000,8.000 L959.000,8.000 L959.000,2.000 L958.000,2.000 L958.000,8.000 L954.000,8.000 L954.000,2.000 L953.000,2.000 L953.000,8.000 L950.000,8.000 L950.000,-0.000 L948.000,-0.000 L948.000,8.000 L944.000,8.000 L944.000,2.000 L943.000,2.000 L943.000,8.000 L939.000,8.000 L939.000,2.000 L938.000,2.000 L938.000,8.000 L934.000,8.000 L934.000,2.000 L933.000,2.000 L933.000,8.000 L929.000,8.000 L929.000,2.000 L928.000,2.000 L928.000,8.000 L925.000,8.000 L925.000,-0.000 L923.000,-0.000 L923.000,8.000 L919.000,8.000 L919.000,2.000 L918.000,2.000 L918.000,8.000 L914.000,8.000 L914.000,2.000 L913.000,2.000 L913.000,8.000 L909.000,8.000 L909.000,2.000 L908.000,2.000 L908.000,8.000 L904.000,8.000 L904.000,2.000 L903.000,2.000 L903.000,8.000 L900.000,8.000 L900.000,-0.000 L898.000,-0.000 L898.000,8.000 L894.000,8.000 L894.000,2.000 L893.000,2.000 L893.000,8.000 L889.000,8.000 L889.000,2.000 L888.000,2.000 L888.000,8.000 L884.000,8.000 L884.000,2.000 L883.000,2.000 L883.000,8.000 L879.000,8.000 L879.000,2.000 L878.000,2.000 L878.000,8.000 L875.000,8.000 L875.000,-0.000 L873.000,-0.000 L873.000,8.000 L869.000,8.000 L869.000,2.000 L868.000,2.000 L868.000,8.000 L864.000,8.000 L864.000,2.000 L863.000,2.000 L863.000,8.000 L859.000,8.000 L859.000,2.000 L858.000,2.000 L858.000,8.000 L854.000,8.000 L854.000,2.000 L853.000,2.000 L853.000,8.000 L850.000,8.000 L850.000,-0.000 L848.000,-0.000 L848.000,8.000 L844.000,8.000 L844.000,2.000 L843.000,2.000 L843.000,8.000 L839.000,8.000 L839.000,2.000 L838.000,2.000 L838.000,8.000 L834.000,8.000 L834.000,2.000 L833.000,2.000 L833.000,8.000 L829.000,8.000 L829.000,2.000 L828.000,2.000 L828.000,8.000 L825.000,8.000 L825.000,-0.000 L823.000,-0.000 L823.000,8.000 L819.000,8.000 L819.000,2.000 L818.000,2.000 L818.000,8.000 L814.000,8.000 L814.000,2.000 L813.000,2.000 L813.000,8.000 L809.000,8.000 L809.000,2.000 L808.000,2.000 L808.000,8.000 L804.000,8.000 L804.000,2.000 L803.000,2.000 L803.000,8.000 L800.000,8.000 L800.000,-0.000 L798.000,-0.000 L798.000,8.000 L794.000,8.000 L794.000,2.000 L793.000,2.000 L793.000,8.000 L789.000,8.000 L789.000,2.000 L788.000,2.000 L788.000,8.000 L784.000,8.000 L784.000,2.000 L783.000,2.000 L783.000,8.000 L779.000,8.000 L779.000,2.000 L778.000,2.000 L778.000,8.000 L775.000,8.000 L775.000,-0.000 L773.000,-0.000 L773.000,8.000 L769.000,8.000 L769.000,2.000 L768.000,2.000 L768.000,8.000 L764.000,8.000 L764.000,2.000 L763.000,2.000 L763.000,8.000 L759.000,8.000 L759.000,2.000 L758.000,2.000 L758.000,8.000 L754.000,8.000 L754.000,2.000 L753.000,2.000 L753.000,8.000 L750.000,8.000 L750.000,-0.000 L748.000,-0.000 L748.000,8.000 L744.000,8.000 L744.000,2.000 L743.000,2.000 L743.000,8.000 L739.000,8.000 L739.000,2.000 L738.000,2.000 L738.000,8.000 L734.000,8.000 L734.000,2.000 L733.000,2.000 L733.000,8.000 L729.000,8.000 L729.000,2.000 L728.000,2.000 L728.000,8.000 L725.000,8.000 L725.000,-0.000 L723.000,-0.000 L723.000,8.000 L719.000,8.000 L719.000,2.000 L718.000,2.000 L718.000,8.000 L714.000,8.000 L714.000,2.000 L713.000,2.000 L713.000,8.000 L709.000,8.000 L709.000,2.000 L708.000,2.000 L708.000,8.000 L704.000,8.000 L704.000,2.000 L703.000,2.000 L703.000,8.000 L700.000,8.000 L700.000,-0.000 L698.000,-0.000 L698.000,8.000 L694.000,8.000 L694.000,2.000 L693.000,2.000 L693.000,8.000 L689.000,8.000 L689.000,2.000 L688.000,2.000 L688.000,8.000 L684.000,8.000 L684.000,2.000 L683.000,2.000 L683.000,8.000 L679.000,8.000 L679.000,3.000 L678.000,3.000 L678.000,8.000 L675.000,8.000 L675.000,-0.000 Z" class="cls-1"/>
</svg>
